# xmcd
#
# Track frame offsets:
#	180
#	14104
#	30648
#	45168
#	61713
#	76937
#	93419
#	108316
#	124052
#	139029
#	153645
#	168622
#
# Disc length: 2562 seconds
#
# Revision: 0
# Processed by: cddbd v1.5.2PL0 Copyright (c) Steve Scherf et al.
# Submitted via: EasyCDDAExtractor 12.0.0.1
#
DISCID=930a000c
DTITLE=Дюна - Танцор диско
DYEAR=1998
DGENRE=
TTITLE0=Воздушный змей
TTITLE1=Русский ресторан
TTITLE2=Считалка
TTITLE3=Бандито
TTITLE4=Золотая середина
TTITLE5=Служебно-розыскная
TTITLE6=Перья от павлина
TTITLE7=Подойди-поспеши
TTITLE8=Два дня
TTITLE9=ЧИ-ЧИ-ГА
TTITLE10=Позови меня
TTITLE11=Страна Лимония REMIX
EXTD=
EXTT0=
EXTT1=
EXTT2=
EXTT3=
EXTT4=
EXTT5=
EXTT6=
EXTT7=
EXTT8=
EXTT9=
EXTT10=
EXTT11=
PLAYORDER=
